<svg id="logo-main" xmlns="http://www.w3.org/2000/svg"
     viewBox="0 0 583.03 88.8">
    <defs>
        <style>.cls-1{fill:none;}.cls-2{clip-path:url(#clip-path);}.cls-3{fill:#941922;}.cls-4{fill:#b4b5d9;}</style>
        <clipPath id="clip-path">
            <rect class="cls-1" x="-75.07" y="-405" width="738.71" height="254.52"/>
        </clipPath>
    </defs>
    <polygon class="cls-3"
             points="178.43 1.07 141.16 87.45 168.8 87.45 190.46 34.93 212.11 87.45 240.25 87.45 202.98 1.07 178.43 1.07"/>
    <polygon class="cls-3"
             points="282.56 53.59 259.99 1.07 231.86 1.07 270.23 87.45 294.79 87.45 330.94 1.07 303.3 1.07 282.56 53.59"/>
    <polygon class="cls-3"
             points="120.56 1.07 100.45 54.27 84.65 1.07 63.3 1.07 47.44 54.12 27.4 1.07 0 1.07 34.18 87.45 59.6 87.45 73.92 42.87 88.23 87.45 113.65 87.45 147.83 1.07 120.56 1.07"/>
    <polygon class="cls-3"
             points="500.73 1.07 500.73 23.16 528.49 23.16 528.49 87.45 555.27 87.45 555.27 23.16 583.03 23.16 583.03 1.07 500.73 1.07"/>
    <rect class="cls-3" x="344.64" y="1.07" width="26.78" height="86.37"/>
    <polygon class="cls-4"
             points="442.98 28.26 390.54 58.53 390.54 30.27 442.98 0 495.42 30.27 495.42 58.53 442.98 28.26"/>
    <polygon class="cls-3"
             points="442.98 60.55 390.54 30.27 390.54 58.53 442.98 88.8 495.42 58.53 495.42 30.27 442.98 60.55"/>
</svg>
